# xmcd CD database file
#
# Track frame offsets:
#	150
#	11149
#	25152
#	36871
#	48912
#	62574
#	75137
#
# Disc length: 1215 seconds
#
# Revision: 0
# Processed by: cddbd v1.5.1PL2 Copyright (c) Steve Scherf et al.
# Submitted via: CDex 1.51
#
DISCID=4604bd07
DTITLE=Leifen and Friends - Country Straight from Heart
DYEAR=1998
DGENRE=Country
TTITLE0=Signed, Sealed and Delivered
TTITLE1=A Country Singer
TTITLE2=Just One More
TTITLE3=Restless Kid
TTITLE4=Forgive me Darling
TTITLE5=Lord, I'm Coming Home
TTITLE6=The Last Letter
EXTD=YEAR: 1998
EXTT0=
EXTT1=
EXTT2=
EXTT3=
EXTT4=
EXTT5=
EXTT6=
PLAYORDER=
